#N canvas 167 22 1284 780 10;
#X msg 72 155 analogIns 2 1;
#N canvas 162 133 610 460 serin 0;
#X obj 59 337 outlet;
#X obj 59 266 trigger bang anything;
#X obj 201 286 list;
#X obj 60 61 tgl 15 0 junk_to_hide_inlet ARDUINO_TEST_RESET 0 5 9 1
12 -262130 -1 -1 1 1;
#X obj 75 61 tgl 15 0 junk_to_hide_inlet ARDUINO_TEST_RESET 1 5 9 1
12 -262130 -1 -1 1 1;
#X obj 90 61 tgl 15 0 junk_to_hide_inlet ARDUINO_TEST_RESET 2 5 9 1
12 -262130 -1 -1 1 1;
#X obj 105 61 tgl 15 0 junk_to_hide_inlet ARDUINO_TEST_RESET 3 5 9
1 12 -262130 -1 -1 0 1;
#X obj 120 61 tgl 15 0 junk_to_hide_inlet ARDUINO_TEST_RESET 4 5 9
1 12 -262130 -1 -1 0 1;
#X obj 135 61 tgl 15 0 junk_to_hide_inlet ARDUINO_TEST_RESET 5 5 9
1 12 -262130 -1 -1 0 1;
#X obj 150 61 tgl 15 0 junk_to_hide_inlet ARDUINO_TEST_RESET 6 5 9
1 12 -262130 -1 -1 0 1;
#X obj 165 61 tgl 15 0 junk_to_hide_inlet ARDUINO_TEST_RESET 7 5 9
1 12 -262130 -1 -1 0 1;
#X msg 59 210 analogIns \$1 \$2;
#X msg 35 106 0 \$1;
#X msg 70 106 1 \$1;
#X msg 105 106 2 \$1;
#X msg 140 106 3 \$1;
#X msg 175 106 4 \$1;
#X msg 210 106 5 \$1;
#X msg 245 106 6 \$1;
#X msg 280 106 7 \$1;
#X msg 202 307 set \$1 \$2 \$3;
#X connect 1 0 0 0;
#X connect 1 1 2 0;
#X connect 2 0 20 0;
#X connect 3 0 12 0;
#X connect 4 0 13 0;
#X connect 5 0 14 0;
#X connect 6 0 15 0;
#X connect 7 0 16 0;
#X connect 8 0 17 0;
#X connect 9 0 18 0;
#X connect 10 0 19 0;
#X connect 11 0 1 0;
#X connect 12 0 11 0;
#X connect 13 0 11 0;
#X connect 14 0 11 0;
#X connect 15 0 11 0;
#X connect 16 0 11 0;
#X connect 17 0 11 0;
#X connect 18 0 11 0;
#X connect 19 0 11 0;
#X connect 20 0 0 0;
#X coords 0 -1 1 1 120 16 1 60 60;
#X restore 72 133 pd serin;
#X text 71 116 which analogIns to enable:;
#X floatatom 40 365 5 0 0 3 a0 - -;
#X floatatom 86 365 5 0 0 3 a1 - -;
#X floatatom 132 365 5 0 0 3 a2 - -;
#X floatatom 178 365 5 0 0 3 a3 - -;
#X floatatom 224 365 5 0 0 3 a4 - -;
#X floatatom 270 365 5 0 0 3 a5 - -;
#X floatatom 316 365 5 0 0 3 a6 - -;
#X floatatom 362 365 5 0 0 3 a7 - -;
#X obj 139 308 route 0 1 2 3 4 5 6 7;
#N canvas 981 48 499 396 display 0;
#X obj 6 7 inlet;
#X obj 6 28 mapping/resample 100;
#X obj 6 50 outlet;
#X obj 54 50 inlet;
#X obj 54 71 mapping/resample 100;
#X obj 54 93 outlet;
#X obj 103 93 inlet;
#X obj 103 114 mapping/resample 100;
#X obj 103 136 outlet;
#X obj 151 136 inlet;
#X obj 151 157 mapping/resample 100;
#X obj 151 179 outlet;
#X obj 200 179 inlet;
#X obj 200 200 mapping/resample 100;
#X obj 200 222 outlet;
#X obj 247 222 inlet;
#X obj 247 243 mapping/resample 100;
#X obj 247 265 outlet;
#X obj 295 265 inlet;
#X obj 295 286 mapping/resample 100;
#X obj 295 308 outlet;
#X obj 345 308 inlet;
#X obj 345 329 mapping/resample 100;
#X obj 345 351 outlet;
#X obj 60 290 receive ARDUINO_TEST_RESET;
#X connect 0 0 1 0;
#X connect 1 0 2 0;
#X connect 3 0 4 0;
#X connect 4 0 5 0;
#X connect 6 0 7 0;
#X connect 7 0 8 0;
#X connect 9 0 10 0;
#X connect 10 0 11 0;
#X connect 12 0 13 0;
#X connect 13 0 14 0;
#X connect 15 0 16 0;
#X connect 16 0 17 0;
#X connect 18 0 19 0;
#X connect 19 0 20 0;
#X connect 21 0 22 0;
#X connect 22 0 23 0;
#X connect 24 0 22 0;
#X connect 24 0 19 0;
#X connect 24 0 16 0;
#X connect 24 0 13 0;
#X connect 24 0 10 0;
#X connect 24 0 7 0;
#X connect 24 0 4 0;
#X connect 24 0 1 0;
#X restore 63 339 pd display values without pegging the CPU;
#X obj 139 243 route analog digital string sysex;
#X obj 335 189 arduino;
#X msg 370 135 open 2;
#X msg 433 137 close;
#X text 2 494 X-axis;
#X floatatom -1 470 5 0 0 0 - - -;
#X obj -1 433 maxlib/scale 0.262 0.401 0 1;
#X floatatom 179 469 5 0 0 0 - - -;
#X obj 179 432 maxlib/scale 0.262 0.401 0 1;
#X text 182 493 Y-axis;
#X floatatom 359 471 5 0 0 0 - - -;
#X text 362 495 Z-axis;
#X obj 359 434 maxlib/scale 0.262 0.40999 0 1;
#X obj 595 420 maxlib/scale;
#X obj 907 425 maxlib/scale;
#X obj 1170 423 maxlib/scale;
#X floatatom 595 441 5 0 0 0 - - -;
#X floatatom 906 453 5 0 0 0 - - -;
#X msg 732 389 1;
#X msg 1044 394 1;
#X msg 1307 392 1;
#X msg 1276 392 0;
#X msg 1013 394 0;
#X msg 701 389 0;
#X msg 656 390 0.4;
#X msg 1185 391 0.347;
#X msg 1231 393 0.4134;
#X msg 968 395 0.4;
#X msg 924 394 0.3294;
#X msg 612 388 0.3323;
#X obj 636 534 line~;
#X floatatom 546 572 5 0 0 0 - - -;
#X obj 606 596 +~;
#X obj 606 616 osc~;
#X obj 595 554 osc~;
#X obj 621 577 *~;
#X obj 595 534 line~;
#X obj 906 541 line~;
#X obj 876 603 +~;
#X obj 876 623 osc~;
#X obj 865 561 osc~;
#X obj 891 584 *~;
#X obj 865 541 line~;
#X obj 1161 540 line~;
#X obj 1131 602 +~;
#X obj 1131 622 osc~;
#X obj 1120 560 osc~;
#X obj 1146 583 *~;
#X obj 1120 540 line~;
#X obj 769 274 f;
#X obj 798 275 + 1;
#X obj 595 514 f;
#X obj 865 521 f;
#X obj 1118 519 f;
#X obj 765 302 t f b;
#X obj 546 551 f;
#X obj 763 228 until;
#X msg 765 180 bang;
#X msg 817 242 0;
#X obj 762 204 t b b;
#X obj 724 535 line~;
#X obj 694 597 +~;
#X obj 694 617 osc~;
#X obj 683 555 osc~;
#X obj 709 578 *~;
#X obj 683 535 line~;
#X obj 683 515 f;
#X obj 745 659 *~ 0.125;
#X obj 640 464 moses 0;
#X obj 757 336 select 1 2 3 4 5 6 7 8;
#X obj 992 541 line~;
#X obj 962 603 +~;
#X obj 962 623 osc~;
#X obj 951 561 osc~;
#X obj 977 584 *~;
#X obj 951 541 line~;
#X obj 951 521 f;
#X obj 1245 540 line~;
#X obj 1215 602 +~;
#X obj 1215 622 osc~;
#X obj 1204 560 osc~;
#X obj 1230 583 *~;
#X obj 1204 540 line~;
#X obj 1202 519 f;
#X msg 637 513 \$1 200;
#X msg 724 514 \$1 200;
#X msg 906 520 \$1 200;
#X msg 992 520 \$1 200;
#X msg 1161 519 \$1 200;
#X msg 1245 519 \$1 200;
#X obj 906 473 moses 0;
#X floatatom 1163 455 5 0 0 0 - - -;
#X obj 1163 475 moses 0;
#X obj 639 490 abs;
#X obj 903 499 abs;
#X obj 1160 498 abs;
#X obj 921 309 random 500;
#X obj 636 554 *~ 400;
#X obj 724 555 *~ 400;
#X obj 906 561 *~ 400;
#X obj 992 561 *~ 400;
#X obj 1161 560 *~ 400;
#X obj 1245 560 *~ 400;
#X obj 755 704 output~;
#X connect 0 0 14 0;
#X connect 1 0 0 0;
#X connect 3 0 19 0;
#X connect 3 0 26 0;
#X connect 4 0 21 0;
#X connect 4 0 27 0;
#X connect 5 0 25 0;
#X connect 5 0 28 0;
#X connect 11 0 12 0;
#X connect 11 1 12 1;
#X connect 11 2 12 2;
#X connect 11 3 12 3;
#X connect 11 4 12 4;
#X connect 11 5 12 5;
#X connect 11 6 12 6;
#X connect 11 7 12 7;
#X connect 12 0 3 0;
#X connect 12 1 4 0;
#X connect 12 2 5 0;
#X connect 12 3 6 0;
#X connect 12 4 7 0;
#X connect 12 5 8 0;
#X connect 12 6 9 0;
#X connect 12 7 10 0;
#X connect 13 0 11 0;
#X connect 14 0 13 0;
#X connect 15 0 14 0;
#X connect 16 0 14 0;
#X connect 19 0 18 0;
#X connect 21 0 20 0;
#X connect 25 0 23 0;
#X connect 26 0 29 0;
#X connect 27 0 30 0;
#X connect 28 0 104 0;
#X connect 29 0 81 0;
#X connect 30 0 103 0;
#X connect 31 0 26 4;
#X connect 32 0 27 4;
#X connect 33 0 28 4;
#X connect 34 0 28 3;
#X connect 35 0 27 3;
#X connect 36 0 26 3;
#X connect 37 0 26 2;
#X connect 38 0 28 1;
#X connect 39 0 28 2;
#X connect 40 0 27 2;
#X connect 41 0 27 1;
#X connect 42 0 26 1;
#X connect 43 0 110 0;
#X connect 44 0 45 0;
#X connect 44 0 51 0;
#X connect 44 0 57 0;
#X connect 44 0 74 0;
#X connect 44 0 84 0;
#X connect 44 0 91 0;
#X connect 45 0 46 0;
#X connect 46 0 80 0;
#X connect 47 0 48 0;
#X connect 48 0 45 1;
#X connect 49 0 47 0;
#X connect 50 0 112 0;
#X connect 51 0 52 0;
#X connect 52 0 80 0;
#X connect 53 0 54 0;
#X connect 54 0 51 1;
#X connect 55 0 53 0;
#X connect 56 0 114 0;
#X connect 57 0 58 0;
#X connect 58 0 80 0;
#X connect 59 0 60 0;
#X connect 60 0 57 1;
#X connect 61 0 59 0;
#X connect 62 0 63 0;
#X connect 62 0 67 0;
#X connect 63 0 62 1;
#X connect 64 0 49 0;
#X connect 65 0 55 0;
#X connect 66 0 61 0;
#X connect 67 0 82 0;
#X connect 67 1 109 0;
#X connect 68 0 44 0;
#X connect 69 0 62 0;
#X connect 70 0 72 0;
#X connect 71 0 62 1;
#X connect 72 0 69 0;
#X connect 72 1 71 0;
#X connect 73 0 111 0;
#X connect 74 0 75 0;
#X connect 75 0 80 0;
#X connect 76 0 77 0;
#X connect 77 0 74 1;
#X connect 78 0 76 0;
#X connect 79 0 78 0;
#X connect 80 0 116 0;
#X connect 81 0 106 0;
#X connect 81 1 98 0;
#X connect 82 0 68 0;
#X connect 82 1 64 0;
#X connect 82 2 79 0;
#X connect 82 3 65 0;
#X connect 82 4 89 0;
#X connect 82 5 66 0;
#X connect 82 6 96 0;
#X connect 82 7 69 1;
#X connect 83 0 113 0;
#X connect 84 0 85 0;
#X connect 85 0 80 0;
#X connect 86 0 87 0;
#X connect 87 0 84 1;
#X connect 88 0 86 0;
#X connect 89 0 88 0;
#X connect 90 0 115 0;
#X connect 91 0 92 0;
#X connect 92 0 80 0;
#X connect 93 0 94 0;
#X connect 94 0 91 1;
#X connect 95 0 93 0;
#X connect 96 0 95 0;
#X connect 97 0 43 0;
#X connect 98 0 73 0;
#X connect 99 0 50 0;
#X connect 100 0 83 0;
#X connect 101 0 56 0;
#X connect 102 0 90 0;
#X connect 103 0 107 0;
#X connect 103 1 100 0;
#X connect 104 0 105 0;
#X connect 105 0 108 0;
#X connect 105 1 102 0;
#X connect 106 0 97 0;
#X connect 107 0 99 0;
#X connect 108 0 101 0;
#X connect 109 0 64 1;
#X connect 109 0 68 1;
#X connect 109 0 65 1;
#X connect 109 0 66 1;
#X connect 109 0 79 1;
#X connect 109 0 89 1;
#X connect 109 0 96 1;
#X connect 110 0 48 1;
#X connect 111 0 77 1;
#X connect 112 0 54 1;
#X connect 113 0 87 1;
#X connect 114 0 60 1;
#X connect 115 0 94 1;
