#N canvas 140 85 1300 717 10;
#X obj 59 35 vsl 15 128 1 2 0 0 empty empty empty 0 -9 0 10 -262144
-1 -1 6071 1;
#X obj 257 37 vsl 15 128 0.5 1.5 0 0 empty empty empty 0 -9 0 10 -262144
-1 -1 6607 1;
#X obj 8 177 loadbang;
#X obj 47 539 dac~ 1 2;
#X obj 47 346 FM 0.8 1;
#X obj 106 346 FM 0.6 1;
#X obj 279 346 FM 0.6 1;
#X obj 164 346 FM 0.4 3;
#X obj 222 346 FM 0.2 3;
#X obj 107 240 * 2;
#X obj 163 239 * 3;
#X obj 107 267 *;
#X obj 163 266 *;
#X obj 223 239 * 4;
#X obj 223 265 *;
#X obj 280 265 *;
#X obj 47 424 *~ 0.2;
#X obj 280 239 * 5;
#X obj 280 306 Surface;
#X obj 216 190 *;
#X obj 246 190 *;
#X obj 274 190 *;
#X obj 304 190 *;
#X msg 46 205 100;
#X obj 120 423 particle 1.01;
#X obj 267 463 *~ 0.2;
#X obj 206 423 particle 1.02;
#X obj 293 423 particle 1.03;
#X obj 379 423 particle 1.04;
#X obj 465 422 particle 1.05;
#X obj 47 510 *~ 0.5;
#X text 10 12 Interval Relationship (Orientation);
#X text 232 12 Partial Range (Pressure);
#X obj 439 36 vsl 15 128 0 1 0 0 empty empty empty 0 -9 0 10 -262144
-1 -1 12700 1;
#X text 392 12 Richness (Acceleration);
#X obj 267 487 *~ 0.5;
#X obj 47 308 Surface;
#X obj 107 307 Surface;
#X obj 163 306 Surface;
#X obj 223 306 Surface;
#X msg 631 165 analogIns 2 1;
#N canvas 162 133 610 460 serin 0;
#X obj 59 337 outlet;
#X obj 59 266 trigger bang anything;
#X obj 201 286 list;
#X obj 60 61 tgl 15 0 junk_to_hide_inlet ARDUINO_TEST_RESET 0 5 9 1
12 -262130 -1 -1 1 1;
#X obj 75 61 tgl 15 0 junk_to_hide_inlet ARDUINO_TEST_RESET 1 5 9 1
12 -262130 -1 -1 1 1;
#X obj 90 61 tgl 15 0 junk_to_hide_inlet ARDUINO_TEST_RESET 2 5 9 1
12 -262130 -1 -1 1 1;
#X obj 105 61 tgl 15 0 junk_to_hide_inlet ARDUINO_TEST_RESET 3 5 9
1 12 -262130 -1 -1 0 1;
#X obj 120 61 tgl 15 0 junk_to_hide_inlet ARDUINO_TEST_RESET 4 5 9
1 12 -262130 -1 -1 0 1;
#X obj 135 61 tgl 15 0 junk_to_hide_inlet ARDUINO_TEST_RESET 5 5 9
1 12 -262130 -1 -1 0 1;
#X obj 150 61 tgl 15 0 junk_to_hide_inlet ARDUINO_TEST_RESET 6 5 9
1 12 -262130 -1 -1 0 1;
#X obj 165 61 tgl 15 0 junk_to_hide_inlet ARDUINO_TEST_RESET 7 5 9
1 12 -262130 -1 -1 0 1;
#X msg 59 210 analogIns \$1 \$2;
#X msg 35 106 0 \$1;
#X msg 70 106 1 \$1;
#X msg 105 106 2 \$1;
#X msg 140 106 3 \$1;
#X msg 175 106 4 \$1;
#X msg 210 106 5 \$1;
#X msg 245 106 6 \$1;
#X msg 280 106 7 \$1;
#X msg 202 307 set \$1 \$2 \$3;
#X connect 1 0 0 0;
#X connect 1 1 2 0;
#X connect 2 0 20 0;
#X connect 3 0 12 0;
#X connect 4 0 13 0;
#X connect 5 0 14 0;
#X connect 6 0 15 0;
#X connect 7 0 16 0;
#X connect 8 0 17 0;
#X connect 9 0 18 0;
#X connect 10 0 19 0;
#X connect 11 0 1 0;
#X connect 12 0 11 0;
#X connect 13 0 11 0;
#X connect 14 0 11 0;
#X connect 15 0 11 0;
#X connect 16 0 11 0;
#X connect 17 0 11 0;
#X connect 18 0 11 0;
#X connect 19 0 11 0;
#X connect 20 0 0 0;
#X coords 0 -1 1 1 120 16 1 60 60;
#X restore 631 143 pd serin;
#X text 630 126 which analogIns to enable:;
#X floatatom 599 375 5 0 0 3 a0 - -;
#X floatatom 645 375 5 0 0 3 a1 - -;
#X floatatom 691 375 5 0 0 3 a2 - -;
#X floatatom 737 375 5 0 0 3 a3 - -;
#X floatatom 783 375 5 0 0 3 a4 - -;
#X floatatom 829 375 5 0 0 3 a5 - -;
#X floatatom 875 375 5 0 0 3 a6 - -;
#X floatatom 921 375 5 0 0 3 a7 - -;
#X obj 698 318 route 0 1 2 3 4 5 6 7;
#N canvas 981 48 499 396 display 0;
#X obj 6 7 inlet;
#X obj 6 28 mapping/resample 100;
#X obj 6 50 outlet;
#X obj 54 50 inlet;
#X obj 54 71 mapping/resample 100;
#X obj 54 93 outlet;
#X obj 103 93 inlet;
#X obj 103 114 mapping/resample 100;
#X obj 103 136 outlet;
#X obj 151 136 inlet;
#X obj 151 157 mapping/resample 100;
#X obj 151 179 outlet;
#X obj 200 179 inlet;
#X obj 200 200 mapping/resample 100;
#X obj 200 222 outlet;
#X obj 247 222 inlet;
#X obj 247 243 mapping/resample 100;
#X obj 247 265 outlet;
#X obj 295 265 inlet;
#X obj 295 286 mapping/resample 100;
#X obj 295 308 outlet;
#X obj 345 308 inlet;
#X obj 345 329 mapping/resample 100;
#X obj 345 351 outlet;
#X obj 60 290 receive ARDUINO_TEST_RESET;
#X connect 0 0 1 0;
#X connect 1 0 2 0;
#X connect 3 0 4 0;
#X connect 4 0 5 0;
#X connect 6 0 7 0;
#X connect 7 0 8 0;
#X connect 9 0 10 0;
#X connect 10 0 11 0;
#X connect 12 0 13 0;
#X connect 13 0 14 0;
#X connect 15 0 16 0;
#X connect 16 0 17 0;
#X connect 18 0 19 0;
#X connect 19 0 20 0;
#X connect 21 0 22 0;
#X connect 22 0 23 0;
#X connect 24 0 22 0;
#X connect 24 0 19 0;
#X connect 24 0 16 0;
#X connect 24 0 13 0;
#X connect 24 0 10 0;
#X connect 24 0 7 0;
#X connect 24 0 4 0;
#X connect 24 0 1 0;
#X restore 622 349 pd display values without pegging the CPU;
#X obj 698 253 route analog digital string sysex;
#X obj 894 199 arduino;
#X msg 929 145 open 2;
#X msg 992 147 close;
#X text 561 504 X-axis;
#X floatatom 558 480 5 0 0 0 - - -;
#X floatatom 738 479 5 0 0 0 - - -;
#X text 741 503 Y-axis;
#X floatatom 918 481 5 0 0 0 - - -;
#X text 921 505 Z-axis;
#X obj 918 444 maxlib/scale 0.262 0.40999 0 1;
#X obj 558 443 maxlib/scale 0.262 0.401 1 2;
#X obj 738 442 maxlib/scale 0.262 0.401 0.5 1.5;
#X connect 0 0 9 0;
#X connect 0 0 10 0;
#X connect 0 0 13 0;
#X connect 0 0 17 0;
#X connect 1 0 19 0;
#X connect 1 0 19 1;
#X connect 1 0 20 1;
#X connect 1 0 21 1;
#X connect 1 0 22 1;
#X connect 1 0 36 1;
#X connect 2 0 23 0;
#X connect 4 0 16 0;
#X connect 4 0 24 0;
#X connect 5 0 16 0;
#X connect 5 0 26 0;
#X connect 6 0 16 0;
#X connect 6 0 29 0;
#X connect 7 0 16 0;
#X connect 7 0 27 0;
#X connect 8 0 16 0;
#X connect 8 0 28 0;
#X connect 9 0 11 0;
#X connect 10 0 12 0;
#X connect 11 0 37 0;
#X connect 12 0 38 0;
#X connect 13 0 14 0;
#X connect 14 0 39 0;
#X connect 15 0 18 0;
#X connect 16 0 30 0;
#X connect 17 0 15 0;
#X connect 18 0 6 0;
#X connect 19 0 20 0;
#X connect 19 0 37 1;
#X connect 20 0 21 0;
#X connect 20 0 38 1;
#X connect 21 0 22 0;
#X connect 21 0 39 1;
#X connect 22 0 18 1;
#X connect 23 0 11 1;
#X connect 23 0 12 1;
#X connect 23 0 14 1;
#X connect 23 0 36 0;
#X connect 24 0 25 0;
#X connect 25 0 35 0;
#X connect 26 0 25 0;
#X connect 27 0 25 0;
#X connect 28 0 25 0;
#X connect 29 0 25 0;
#X connect 30 0 3 0;
#X connect 30 0 3 1;
#X connect 33 0 35 1;
#X connect 35 0 30 0;
#X connect 36 0 4 0;
#X connect 37 0 5 0;
#X connect 38 0 7 0;
#X connect 39 0 8 0;
#X connect 40 0 54 0;
#X connect 41 0 40 0;
#X connect 43 0 64 0;
#X connect 44 0 65 0;
#X connect 45 0 63 0;
#X connect 51 0 52 0;
#X connect 51 1 52 1;
#X connect 51 2 52 2;
#X connect 51 3 52 3;
#X connect 51 4 52 4;
#X connect 51 5 52 5;
#X connect 51 6 52 6;
#X connect 51 7 52 7;
#X connect 52 0 43 0;
#X connect 52 1 44 0;
#X connect 52 2 45 0;
#X connect 52 3 46 0;
#X connect 52 4 47 0;
#X connect 52 5 48 0;
#X connect 52 6 49 0;
#X connect 52 7 50 0;
#X connect 53 0 51 0;
#X connect 54 0 53 0;
#X connect 55 0 54 0;
#X connect 56 0 54 0;
#X connect 59 0 1 0;
#X connect 61 0 33 0;
#X connect 63 0 61 0;
#X connect 64 0 58 0;
#X connect 64 0 0 0;
#X connect 65 0 59 0;
