#N canvas 983 207 1600 818 10;
#X obj 62 81 inlet~;
#X obj 77 150 osc~ 1;
#X obj 77 171 +~ 3;
#X obj 77 192 *~ 0.25;
#X obj 62 217 *~;
#X obj 76 107 osc~ \$1;
#X obj 77 129 *~ \$2;
#X obj 62 242 outlet~;
#X connect 0 0 4 0;
#X connect 1 0 2 0;
#X connect 2 0 3 0;
#X connect 3 0 4 1;
#X connect 4 0 7 0;
#X connect 5 0 6 0;
#X connect 6 0 1 0;
