#N canvas 140 85 863 566 10;
#X obj 59 35 vsl 15 128 1 2 0 0 empty empty empty 0 -9 0 10 -262144
-1 -1 2100 1;
#X obj 257 37 vsl 15 128 0.5 1.5 0 0 empty empty empty 0 -9 0 10 -262144
-1 -1 12700 1;
#X obj 8 177 loadbang;
#X obj 47 539 dac~ 1 2;
#X obj 47 346 FM 0.8 1;
#X obj 106 346 FM 0.6 1;
#X obj 279 346 FM 0.6 1;
#X obj 164 346 FM 0.4 3;
#X obj 222 346 FM 0.2 3;
#X obj 107 240 * 2;
#X obj 163 239 * 3;
#X obj 107 267 *;
#X obj 163 266 *;
#X obj 223 239 * 4;
#X obj 223 265 *;
#X obj 280 265 *;
#X obj 47 424 *~ 0.2;
#X obj 280 239 * 5;
#X obj 280 306 Surface;
#X obj 216 190 *;
#X obj 246 190 *;
#X obj 274 190 *;
#X obj 304 190 *;
#X msg 46 205 100;
#X obj 120 423 particle 1.01;
#X obj 267 463 *~ 0.2;
#X obj 206 423 particle 1.02;
#X obj 293 423 particle 1.03;
#X obj 379 423 particle 1.04;
#X obj 465 422 particle 1.05;
#X obj 47 510 *~ 0.5;
#X text 10 12 Interval Relationship (Orientation);
#X text 232 12 Partial Range (Pressure);
#X obj 439 36 vsl 15 128 0 1 0 0 empty empty empty 0 -9 0 10 -262144
-1 -1 0 1;
#X text 392 12 Richness (Acceleration);
#X obj 267 487 *~ 0.5;
#X obj 47 308 Surface;
#X obj 107 307 Surface;
#X obj 163 306 Surface;
#X obj 223 306 Surface;
#X connect 0 0 9 0;
#X connect 0 0 10 0;
#X connect 0 0 13 0;
#X connect 0 0 17 0;
#X connect 1 0 19 0;
#X connect 1 0 19 1;
#X connect 1 0 20 1;
#X connect 1 0 21 1;
#X connect 1 0 22 1;
#X connect 1 0 36 1;
#X connect 2 0 23 0;
#X connect 4 0 16 0;
#X connect 4 0 24 0;
#X connect 5 0 16 0;
#X connect 5 0 26 0;
#X connect 6 0 16 0;
#X connect 6 0 29 0;
#X connect 7 0 16 0;
#X connect 7 0 27 0;
#X connect 8 0 16 0;
#X connect 8 0 28 0;
#X connect 9 0 11 0;
#X connect 10 0 12 0;
#X connect 11 0 37 0;
#X connect 12 0 38 0;
#X connect 13 0 14 0;
#X connect 14 0 39 0;
#X connect 15 0 18 0;
#X connect 16 0 30 0;
#X connect 17 0 15 0;
#X connect 18 0 6 0;
#X connect 19 0 20 0;
#X connect 19 0 37 1;
#X connect 20 0 21 0;
#X connect 20 0 38 1;
#X connect 21 0 22 0;
#X connect 21 0 39 1;
#X connect 22 0 18 1;
#X connect 23 0 11 1;
#X connect 23 0 12 1;
#X connect 23 0 14 1;
#X connect 23 0 36 0;
#X connect 24 0 25 0;
#X connect 25 0 35 0;
#X connect 26 0 25 0;
#X connect 27 0 25 0;
#X connect 28 0 25 0;
#X connect 29 0 25 0;
#X connect 30 0 3 0;
#X connect 30 0 3 1;
#X connect 33 0 35 1;
#X connect 35 0 30 0;
#X connect 36 0 4 0;
#X connect 37 0 5 0;
#X connect 38 0 7 0;
#X connect 39 0 8 0;
