#N canvas 870 276 586 321 10;
#X obj 47 68 inlet;
#X text 90 69 Frequency;
#X obj 47 91 s \$0-a;
#X obj 158 69 inlet;
#X text 199 69 Amplitude;
#X obj 158 90 s \$0-b;
#X obj 46 143 Partial 1 1;
#X obj 46 121 r \$0-a;
#X obj 109 122 r \$0-b;
#X obj 153 122 r \$0-a;
#X obj 216 123 r \$0-b;
#X obj 259 123 r \$0-a;
#X obj 322 124 r \$0-b;
#X obj 367 124 r \$0-a;
#X obj 430 125 r \$0-b;
#X obj 46 178 *~ 0.25;
#X obj 46 212 outlet~;
#X obj 153 143 Partial 2.5 0.5;
#X obj 259 144 Partial 4.9 0.2;
#X obj 367 145 Partial 6.1 0.1;
#X connect 0 0 2 0;
#X connect 3 0 5 0;
#X connect 6 0 15 0;
#X connect 7 0 6 0;
#X connect 8 0 6 1;
#X connect 9 0 17 0;
#X connect 10 0 17 1;
#X connect 11 0 18 0;
#X connect 12 0 18 1;
#X connect 13 0 19 0;
#X connect 14 0 19 1;
#X connect 15 0 16 0;
#X connect 17 0 15 0;
#X connect 18 0 15 0;
#X connect 19 0 15 0;
